<?xml version="1.0" encoding="UTF-8" standalone="no"?>
<!DOCTYPE svg PUBLIC "-//W3C//DTD SVG 1.1//EN" "http://www.w3.org/Graphics/SVG/1.1/DTD/svg11.dtd">
<svg width="100%" height="100%" viewBox="0 0 2469 484" version="1.1" xmlns="http://www.w3.org/2000/svg" xmlns:xlink="http://www.w3.org/1999/xlink" xml:space="preserve" xmlns:serif="http://www.serif.com/" style="fill-rule:evenodd;clip-rule:evenodd;stroke-linejoin:round;stroke-miterlimit:2;">
    <g transform="matrix(1,0,0,1,-1265.78,-1005.97)">
        <g id="Text-White" serif:id="Text White" transform="matrix(1,0,0,1,-105.899,-1046.71)">
            <g transform="matrix(791.667,0,0,791.667,2006.62,2502.47)">
                <path d="M0.295,0.01C0.246,0.01 0.203,-0.002 0.165,-0.026C0.126,-0.05 0.096,-0.083 0.074,-0.124C0.051,-0.165 0.04,-0.212 0.04,-0.263C0.04,-0.314 0.051,-0.361 0.074,-0.402C0.096,-0.443 0.126,-0.476 0.165,-0.5C0.203,-0.524 0.246,-0.536 0.295,-0.536C0.342,-0.536 0.384,-0.527 0.423,-0.508C0.461,-0.489 0.49,-0.463 0.51,-0.43L0.453,-0.36C0.442,-0.375 0.429,-0.389 0.412,-0.402C0.395,-0.415 0.378,-0.425 0.359,-0.432C0.34,-0.439 0.322,-0.443 0.305,-0.443C0.273,-0.443 0.245,-0.435 0.22,-0.42C0.195,-0.404 0.175,-0.382 0.16,-0.355C0.145,-0.328 0.138,-0.297 0.138,-0.263C0.138,-0.229 0.146,-0.199 0.161,-0.172C0.176,-0.145 0.197,-0.123 0.222,-0.107C0.247,-0.091 0.275,-0.083 0.306,-0.083C0.324,-0.083 0.341,-0.086 0.359,-0.092C0.376,-0.098 0.392,-0.107 0.408,-0.119C0.424,-0.131 0.439,-0.146 0.453,-0.163L0.51,-0.093C0.489,-0.063 0.458,-0.038 0.419,-0.019C0.379,0 0.338,0.01 0.295,0.01Z" style="fill:white;fill-rule:nonzero;"/>
            </g>
            <g transform="matrix(791.667,0,0,791.667,2485.57,2502.47)">
                <path d="M0.308,0.01C0.257,0.01 0.211,-0.002 0.171,-0.026C0.13,-0.049 0.098,-0.082 0.075,-0.123C0.052,-0.164 0.04,-0.21 0.04,-0.263C0.04,-0.316 0.052,-0.363 0.075,-0.404C0.098,-0.445 0.13,-0.477 0.171,-0.501C0.211,-0.524 0.257,-0.536 0.308,-0.536C0.359,-0.536 0.404,-0.524 0.445,-0.501C0.485,-0.477 0.517,-0.445 0.54,-0.404C0.563,-0.363 0.575,-0.316 0.575,-0.263C0.575,-0.21 0.563,-0.164 0.54,-0.123C0.517,-0.082 0.485,-0.049 0.445,-0.026C0.404,-0.002 0.359,0.01 0.308,0.01ZM0.308,-0.084C0.339,-0.084 0.367,-0.092 0.392,-0.108C0.417,-0.123 0.436,-0.145 0.45,-0.172C0.464,-0.199 0.471,-0.229 0.47,-0.263C0.471,-0.298 0.464,-0.329 0.45,-0.356C0.436,-0.383 0.417,-0.404 0.392,-0.419C0.367,-0.434 0.339,-0.442 0.308,-0.442C0.277,-0.442 0.249,-0.434 0.224,-0.419C0.199,-0.403 0.179,-0.382 0.165,-0.355C0.151,-0.327 0.144,-0.297 0.145,-0.263C0.144,-0.229 0.151,-0.199 0.165,-0.172C0.179,-0.145 0.199,-0.123 0.224,-0.108C0.249,-0.092 0.277,-0.084 0.308,-0.084Z" style="fill:white;fill-rule:nonzero;"/>
            </g>
            <g transform="matrix(791.667,0,0,791.667,3027.87,2502.47)">
                <path d="M0.072,-0L0.072,-0.525L0.176,-0.525L0.176,-0.36L0.166,-0.4C0.173,-0.425 0.186,-0.448 0.204,-0.469C0.221,-0.49 0.242,-0.506 0.265,-0.518C0.288,-0.53 0.311,-0.536 0.336,-0.536C0.347,-0.536 0.358,-0.535 0.369,-0.533C0.379,-0.531 0.387,-0.529 0.393,-0.526L0.366,-0.414C0.358,-0.417 0.349,-0.42 0.34,-0.423C0.33,-0.425 0.32,-0.426 0.311,-0.426C0.293,-0.426 0.276,-0.423 0.26,-0.416C0.243,-0.409 0.229,-0.399 0.217,-0.387C0.204,-0.374 0.194,-0.36 0.187,-0.344C0.18,-0.327 0.176,-0.309 0.176,-0.29L0.176,-0L0.072,-0Z" style="fill:white;fill-rule:nonzero;"/>
            </g>
            <g transform="matrix(791.667,0,0,791.667,3384.91,2502.47)">
                <path d="M0.308,0.01C0.257,0.01 0.211,-0.002 0.171,-0.026C0.13,-0.049 0.098,-0.082 0.075,-0.123C0.052,-0.164 0.04,-0.21 0.04,-0.263C0.04,-0.316 0.052,-0.363 0.075,-0.404C0.098,-0.445 0.13,-0.477 0.171,-0.501C0.211,-0.524 0.257,-0.536 0.308,-0.536C0.359,-0.536 0.404,-0.524 0.445,-0.501C0.485,-0.477 0.517,-0.445 0.54,-0.404C0.563,-0.363 0.575,-0.316 0.575,-0.263C0.575,-0.21 0.563,-0.164 0.54,-0.123C0.517,-0.082 0.485,-0.049 0.445,-0.026C0.404,-0.002 0.359,0.01 0.308,0.01ZM0.308,-0.084C0.339,-0.084 0.367,-0.092 0.392,-0.108C0.417,-0.123 0.436,-0.145 0.45,-0.172C0.464,-0.199 0.471,-0.229 0.47,-0.263C0.471,-0.298 0.464,-0.329 0.45,-0.356C0.436,-0.383 0.417,-0.404 0.392,-0.419C0.367,-0.434 0.339,-0.442 0.308,-0.442C0.277,-0.442 0.249,-0.434 0.224,-0.419C0.199,-0.403 0.179,-0.382 0.165,-0.355C0.151,-0.327 0.144,-0.297 0.145,-0.263C0.144,-0.229 0.151,-0.199 0.165,-0.172C0.179,-0.145 0.199,-0.123 0.224,-0.108C0.249,-0.092 0.277,-0.084 0.308,-0.084Z" style="fill:white;fill-rule:nonzero;"/>
            </g>
        </g>
        <g id="Icon" transform="matrix(0.622668,1.07849,-1.07849,0.622668,3758.48,-2445.21)">
            <path d="M1721.64,3115.73L1670.08,3205.04C1666.63,3211.01 1660.27,3214.69 1653.38,3214.69L1569.92,3214.69C1563.03,3214.69 1556.66,3211.01 1553.22,3205.04C1549.77,3199.07 1549.77,3191.72 1553.22,3185.75L1594.69,3113.92C1598.13,3107.95 1598.13,3100.6 1594.69,3094.63L1568.01,3048.42L1567.99,3048.39L1510.06,2947.62C1509.96,2947.45 1509.86,2947.28 1509.76,2947.12C1509.66,2946.95 1509.57,2946.77 1509.47,2946.6C1507.07,2942.11 1506.46,2936.75 1507.97,2931.73C1508.19,2930.74 1508.67,2929.47 1509.63,2927.81C1509.67,2927.73 1509.72,2927.65 1509.77,2927.57C1509.81,2927.49 1509.86,2927.41 1509.9,2927.34C1525.97,2899.51 1570.58,2822.23 1590.36,2787.99C1592.91,2783.55 1597.13,2780.32 1602.07,2779C1607.01,2777.67 1612.27,2778.37 1616.7,2780.93L1679.3,2817.06C1683.73,2819.62 1686.96,2823.83 1688.28,2828.78C1689.61,2833.72 1688.91,2838.98 1686.36,2843.41L1637.57,2927.91C1634.12,2933.88 1634.12,2941.23 1637.57,2947.2L1717.4,3085.47C1727.3,3098.63 1741.31,3080.78 1741.31,3080.78L1741.31,3080.78C1741.35,3080.72 1741.38,3080.66 1741.41,3080.6L1819.53,2945.3C1822.3,2940.51 1827.41,2937.56 1832.94,2937.56L1925.17,2937.56C1930.71,2937.56 1935.82,2940.51 1938.59,2945.3C1941.35,2950.09 1941.35,2956 1938.59,2960.79L1860.47,3096.09C1857.7,3100.88 1852.59,3103.84 1847.06,3103.84L1754.83,3103.84C1754.6,3103.84 1754.37,3103.83 1754.15,3103.82C1753.76,3103.83 1753.36,3103.84 1752.94,3103.84C1734,3103.84 1725.36,3110.72 1723.09,3113.63C1722.58,3114.28 1722.01,3115.11 1721.69,3115.65C1721.67,3115.68 1721.66,3115.7 1721.64,3115.73Z" style="fill:rgb(6,202,179);"/>
        </g>
    </g>
</svg>
